<svg width="34" height="28" viewBox="0 0 34 28" fill="none" xmlns="http://www.w3.org/2000/svg">
<path d="M30.3333 0.666748H3.66668C1.83334 0.666748 0.35001 2.16675 0.35001 4.00008L0.333344 24.0001C0.333344 25.8334 1.83334 27.3334 3.66668 27.3334H30.3333C32.1667 27.3334 33.6667 25.8334 33.6667 24.0001V4.00008C33.6667 2.16675 32.1667 0.666748 30.3333 0.666748ZM29.6667 7.75008L17.8833 15.1167C17.35 15.4501 16.65 15.4501 16.1167 15.1167L4.33334 7.75008C4.16622 7.65627 4.01988 7.52952 3.90316 7.3775C3.78644 7.22549 3.70178 7.05138 3.6543 6.8657C3.60682 6.68002 3.59751 6.48664 3.62694 6.29726C3.65636 6.10788 3.7239 5.92644 3.82548 5.76392C3.92706 5.60139 4.06055 5.46117 4.21789 5.35174C4.37522 5.2423 4.55313 5.16593 4.74084 5.12725C4.92854 5.08856 5.12215 5.08836 5.30994 5.12666C5.49772 5.16496 5.67578 5.24097 5.83334 5.35008L17 12.3334L28.1667 5.35008C28.3242 5.24097 28.5023 5.16496 28.6901 5.12666C28.8779 5.08836 29.0715 5.08856 29.2592 5.12725C29.4469 5.16593 29.6248 5.2423 29.7821 5.35174C29.9395 5.46117 30.073 5.60139 30.1745 5.76392C30.2761 5.92644 30.3437 6.10788 30.3731 6.29726C30.4025 6.48664 30.3932 6.68002 30.3457 6.8657C30.2982 7.05138 30.2136 7.22549 30.0969 7.3775C29.9801 7.52952 29.8338 7.65627 29.6667 7.75008Z" fill="white"/>
</svg>
