<svg width="32" height="32" viewBox="0 0 32 32" fill="none" xmlns="http://www.w3.org/2000/svg">
<path d="M16 10.7929C13.1328 10.7929 10.793 13.1328 10.793 15.9999C10.793 18.8671 13.1328 21.207 16 21.207C18.8672 21.207 21.207 18.8671 21.207 15.9999C21.207 13.1328 18.8672 10.7929 16 10.7929ZM31.6172 15.9999C31.6172 13.8437 31.6367 11.707 31.5156 9.55463C31.3945 7.05463 30.8242 4.83588 28.9961 3.00775C27.1641 1.17572 24.9492 0.609316 22.4492 0.488222C20.293 0.367129 18.1563 0.38666 16.0039 0.38666C13.8477 0.38666 11.7109 0.367129 9.5586 0.488222C7.0586 0.609316 4.83985 1.17963 3.01172 3.00775C1.17969 4.83979 0.613283 7.05463 0.49219 9.55463C0.371096 11.7109 0.390627 13.8476 0.390627 15.9999C0.390627 18.1523 0.371096 20.2929 0.49219 22.4453C0.613283 24.9453 1.1836 27.164 3.01172 28.9921C4.84375 30.8242 7.0586 31.3906 9.5586 31.5117C11.7148 31.6328 13.8516 31.6132 16.0039 31.6132C18.1602 31.6132 20.2969 31.6328 22.4492 31.5117C24.9492 31.3906 27.168 30.8203 28.9961 28.9921C30.8281 27.1601 31.3945 24.9453 31.5156 22.4453C31.6406 20.2929 31.6172 18.1562 31.6172 15.9999ZM16 24.0117C11.5664 24.0117 7.98829 20.4335 7.98829 15.9999C7.98829 11.5663 11.5664 7.98822 16 7.98822C20.4336 7.98822 24.0117 11.5663 24.0117 15.9999C24.0117 20.4335 20.4336 24.0117 16 24.0117ZM24.3399 9.53119C23.3047 9.53119 22.4688 8.69525 22.4688 7.6601C22.4688 6.62494 23.3047 5.789 24.3399 5.789C25.375 5.789 26.2109 6.62494 26.2109 7.6601C26.2113 7.9059 26.1631 8.14935 26.0691 8.3765C25.9752 8.60365 25.8374 8.81004 25.6636 8.98385C25.4898 9.15766 25.2834 9.29547 25.0563 9.38939C24.8291 9.48331 24.5857 9.5315 24.3399 9.53119Z" fill="white"/>
</svg>
