<svg width="100" height="100" viewBox="0 0 100 100" fill="none" xmlns="http://www.w3.org/2000/svg">
<path d="M41.6667 68.75L66.6667 50L41.6667 31.25V68.75ZM50 8.33331C27 8.33331 8.33334 27 8.33334 50C8.33334 73 27 91.6667 50 91.6667C73 91.6667 91.6667 73 91.6667 50C91.6667 27 73 8.33331 50 8.33331ZM50 83.3333C31.625 83.3333 16.6667 68.375 16.6667 50C16.6667 31.625 31.625 16.6666 50 16.6666C68.375 16.6666 83.3334 31.625 83.3334 50C83.3334 68.375 68.375 83.3333 50 83.3333Z" fill="#F2F2F2"/>
</svg>
