<svg width="66" height="66" viewBox="0 0 66 66" fill="none" xmlns="http://www.w3.org/2000/svg">
<path d="M65.2079 51.7093L62.788 50.4993C63.3276 49.8988 63.6257 49.1198 63.625 48.3125C63.625 48.0224 63.5098 47.7442 63.3046 47.5391C63.0995 47.334 62.8213 47.2188 62.5312 47.2188H56.5156L50.4344 39.1102L47.8686 25.4298C47.6334 24.1761 46.9675 23.0442 45.986 22.2296C45.0045 21.415 43.7692 20.969 42.4938 20.9688H37.375V18.206C37.6801 17.9291 37.9566 17.6222 38.2002 17.2899C38.6906 18.0801 39.3743 18.7321 40.1869 19.1845C40.9994 19.6368 41.9138 19.8745 42.8438 19.875H45.0312C45.2177 19.875 45.401 19.8273 45.5639 19.7365C45.7267 19.6458 45.8636 19.5148 45.9616 19.3562C46.0596 19.1976 46.1155 19.0166 46.1239 18.8304C46.1322 18.6441 46.0929 18.4588 46.0095 18.2921L45.0312 16.3355V7.84376C45.0296 6.39386 44.4529 5.00381 43.4277 3.97857C42.4025 2.95333 41.0124 2.37664 39.5625 2.37501H38.3888C36.9478 0.969005 35.0132 0.183691 33 0.187514C28.7783 0.187514 25.3438 3.56638 25.3438 7.71962C25.3438 8.1671 25.364 8.61964 25.4001 9.07218C25.0653 9.3319 24.79 9.66018 24.5925 10.035C24.3951 10.4099 24.28 10.8226 24.2551 11.2455C24.2302 11.6685 24.296 12.0918 24.4481 12.4873C24.6002 12.8827 24.8351 13.241 25.137 13.5382C25.5402 13.9357 26.0476 14.211 26.6006 14.3323C26.6254 14.4489 26.6524 14.5647 26.6826 14.6811L26.8453 15.2985C27.1448 16.4194 27.763 17.4295 28.625 18.2061V20.9688H26.4375C26.1786 20.9687 25.928 21.0606 25.7304 21.2279C25.5329 21.3953 25.4011 21.6273 25.3585 21.8827L24.3303 28.0527C23.6407 28.6789 23.0901 29.4427 22.7141 30.2948C22.3381 31.147 22.145 32.0686 22.1473 33C22.1478 33.4631 22.196 33.9248 22.2911 34.378L21.0379 41.2715L10.4839 53.9359L4.5625 55.9096L2.375 55.1804V53.3634L6.14543 51.4782C6.36578 51.368 6.54246 51.1866 6.64687 50.9635C6.75127 50.7403 6.77727 50.4885 6.72066 50.2487C6.66405 50.0089 6.52814 49.7953 6.33496 49.6424C6.14177 49.4895 5.90262 49.4063 5.65625 49.4063H10.0312C10.201 49.4063 10.3685 49.3667 10.5204 49.2908C10.6723 49.2149 10.8044 49.1046 10.9062 48.9688L17.4688 40.2188C17.5694 40.0846 17.6378 39.929 17.6688 39.7642L20.2816 25.8318C20.4228 25.0799 20.8224 24.4009 21.4112 23.9123C22.0001 23.4237 22.7411 23.1563 23.5063 23.1563V20.9688C22.2308 20.969 20.9956 21.4149 20.0142 22.2293C19.0327 23.0438 18.3667 24.1757 18.1314 25.4292L15.5656 39.1102L9.48438 47.2188H3.46875C3.17867 47.2188 2.90047 47.334 2.69535 47.5391C2.49023 47.7442 2.375 48.0224 2.375 48.3125C2.37407 49.12 2.67219 49.8993 3.21186 50.5L0.791934 51.71C0.610401 51.8008 0.457718 51.9403 0.35097 52.1129C0.244222 52.2856 0.187621 52.4845 0.1875 52.6875V55.9688C0.187483 56.1983 0.259701 56.4221 0.393923 56.6083C0.528145 56.7946 0.717565 56.9338 0.935351 57.0065L3.95 58.0113C3.65163 58.6787 3.48866 59.3986 3.47053 60.1294C3.47053 60.1385 3.47053 60.1476 3.47053 60.1567V60.1822C3.46957 60.2111 3.46916 60.2407 3.46916 60.2688C3.47104 61.7385 4.05569 63.1474 5.09489 64.1867C6.1341 65.2259 7.54302 65.8106 9.0127 65.8125H36.2812V63.625H24.1535L33 61.6144L41.8457 63.625H38.4688V65.8125H56.987C57.9109 65.8109 58.8199 65.5789 59.6315 65.1373C60.4431 64.6958 61.1317 64.0588 61.635 63.284C62.1383 62.5092 62.4403 61.6211 62.5137 60.7001C62.5871 59.7791 62.4296 58.8543 62.0555 58.0096L65.0647 57.0065C65.2824 56.9338 65.4719 56.7946 65.6061 56.6083C65.7403 56.4221 65.8125 56.1983 65.8125 55.9688V52.6875C65.8125 52.4844 65.7559 52.2853 65.6491 52.1125C65.5424 51.9398 65.3896 51.8001 65.2079 51.7093ZM39.5625 14.3201C40.1965 14.1472 40.7551 13.7688 41.151 13.2443C41.5468 12.7198 41.7575 12.0788 41.75 11.4217C41.7535 10.6471 41.4611 9.90031 40.9326 9.334C40.8309 9.22651 40.7212 9.12691 40.6044 9.03609C40.6385 8.5974 40.6558 8.15854 40.6562 7.71949C40.6567 6.63706 40.419 5.56778 39.9602 4.5874C40.7552 4.68539 41.487 5.07042 42.018 5.6701C42.549 6.26977 42.8427 7.04277 42.8438 7.84376V16.5938C42.8437 16.7636 42.8833 16.9311 42.9593 17.0829L43.2616 17.6875H42.8438C41.9738 17.6865 41.1398 17.3405 40.5247 16.7253C39.9095 16.1102 39.5635 15.2762 39.5625 14.4063V14.3201ZM37.375 12.7959C37.375 15.3388 35.7314 17.6864 33.0019 17.6875C31.0922 17.6883 29.6261 16.407 28.9839 14.7311C28.7495 14.1126 28.6279 13.4571 28.625 12.7957V10.2026C30.2179 9.70533 32.1797 8.94927 34.1523 6.96343C35.1142 8.35075 36.1924 9.65381 37.375 10.8585V12.7959ZM36.0461 23.1303L35.8522 24.0991C35.7204 24.7585 35.3641 25.3518 34.8441 25.7781C34.3241 26.2044 33.6724 26.4374 33 26.4374C32.3276 26.4374 31.6759 26.2044 31.1559 25.7781C30.6359 25.3518 30.2796 24.7585 30.1478 24.0991L29.9539 23.1303C30.1972 23.0767 30.415 22.9417 30.5711 22.7475C30.7273 22.5533 30.8124 22.3117 30.8125 22.0625V19.5041C32.2289 19.9986 33.7711 19.9986 35.1875 19.5041V22.0625C35.1876 22.3117 35.2727 22.5533 35.4289 22.7475C35.585 22.9417 35.8028 23.0767 36.0461 23.1303ZM27.5408 8.24654C27.5344 8.07017 27.5312 7.89453 27.5312 7.71962C27.5312 4.77251 29.9845 2.37501 33 2.37501C36.0155 2.37501 38.4688 4.77251 38.4688 7.71962C38.4688 8.07628 38.4558 8.43348 38.4299 8.79122C36.1892 6.36911 35.2962 4.66546 35.2854 4.64509C35.2022 4.48297 35.0799 4.34419 34.9295 4.24136C34.7791 4.13853 34.6054 4.0749 34.4241 4.05625C34.2429 4.0376 34.0599 4.06452 33.8917 4.13457C33.7235 4.20463 33.5754 4.31559 33.461 4.45738C31.3843 7.03152 29.3496 7.70322 27.5408 8.24654ZM26.0273 29.4791C26.2379 29.3108 26.3788 29.0707 26.4231 28.8048L27.364 23.1563H27.7283L28.0027 24.5282C28.234 25.6832 28.8583 26.7223 29.7693 27.469C30.6803 28.2156 31.8218 28.6236 32.9997 28.6236C34.1776 28.6236 35.3191 28.2156 36.2302 27.469C37.1412 26.7223 37.7655 25.6832 37.9968 24.5282L38.2717 23.1563H38.636L39.5773 28.8048C39.6215 29.0706 39.7623 29.3107 39.9727 29.4791C40.4766 29.8822 40.8881 30.3889 41.1795 30.9647C41.4708 31.5406 41.6351 32.1723 41.6613 32.8171C41.6876 33.462 41.5751 34.1049 41.3314 34.7025C41.0878 35.3002 40.7188 35.8385 40.2492 36.2813H25.7508C25.2812 35.8385 24.9122 35.3002 24.6686 34.7025C24.4249 34.1049 24.3124 33.462 24.3387 32.8171C24.3649 32.1723 24.5292 31.5406 24.8205 30.9647C25.1119 30.3889 25.5234 29.8822 26.0273 29.4791ZM46.125 49.4063C46.0355 49.4062 45.9464 49.4172 45.8596 49.4389L42.6096 50.252L41.6991 47.9747L40.6788 43.8929L41.6702 37.9457C41.8069 37.8207 41.9379 37.6901 42.0631 37.5555L42.8614 41.9463C42.8952 42.132 42.9764 42.3058 43.0972 42.4508L48.8941 49.4063H46.125ZM49.9531 51.5938C50.0982 51.5938 50.2373 51.6514 50.3398 51.7539C50.4424 51.8565 50.5 51.9956 50.5 52.1406C50.497 52.2847 50.4384 52.4221 50.3365 52.524C50.2346 52.6259 50.0972 52.6845 49.9531 52.6875C49.6075 52.6875 49.2366 52.6432 48.9171 52.803L45.8495 54.3369L37.6143 54.0529L37.9055 52.8879C37.9402 52.7486 38.0021 52.6174 38.0876 52.5019C38.1731 52.3865 38.2804 52.289 38.4036 52.2151C38.5267 52.1411 38.6633 52.0921 38.8053 52.0709C38.9474 52.0497 39.0923 52.0568 39.2316 52.0915L41.4848 52.6548C41.6585 52.6981 41.8402 52.6981 42.014 52.6548L42.1876 52.6116C42.1968 52.6096 42.2059 52.6074 42.215 52.6051L46.2597 51.5933L49.9531 51.5938ZM38.5014 44.2027L39.2554 47.2188H34.0938V42.8438H31.9062V47.2188H26.7446L27.4986 44.2027C27.5349 44.0572 27.541 43.9057 27.5165 43.7577L26.6348 38.4688H39.3652L38.4835 43.7577C38.459 43.9057 38.4651 44.0572 38.5014 44.2027ZM22.9028 42.4501C23.0236 42.3051 23.1048 42.1313 23.1386 41.9457L23.9369 37.5548C24.0621 37.6895 24.1926 37.82 24.3298 37.945L25.3212 43.8929L24.3009 47.9747L23.3906 50.2516L20.1402 49.4389C20.0535 49.4172 19.9644 49.4062 19.875 49.4063H17.1059L22.9028 42.4501ZM13.6848 53.5117C13.931 53.9347 14.2856 54.2844 14.712 54.5247L12.7852 54.5912L13.6848 53.5117ZM14.2832 63.625H9.0127C8.12282 63.624 7.26969 63.27 6.64045 62.6408C6.01121 62.0116 5.65726 61.1584 5.65625 60.2686V60.2594C5.65721 60.2415 5.65762 60.2236 5.65762 60.2057V60.1709C5.68157 59.3351 6.01684 58.5384 6.5977 57.937C7.92209 56.5618 10.2581 56.8671 12.0194 56.8064L17.9411 56.6014L19.6699 56.543L27.0418 60.2289C27.1202 60.2681 27.2031 60.2978 27.2886 60.3172L28.0643 60.4935L14.2832 63.625ZM35.4243 59.9224L27.9019 58.2134L17.0825 52.8037C16.9308 52.7276 16.7635 52.6878 16.5938 52.6875H16.0469C15.9018 52.6875 15.7627 52.6299 15.6602 52.5273C15.5576 52.4248 15.5 52.2857 15.5 52.1406C15.5 51.9956 15.5576 51.8565 15.6602 51.7539C15.7627 51.6514 15.9018 51.5938 16.0469 51.5938H19.7405L23.9848 52.6548C24.1589 52.6983 24.3411 52.6983 24.5152 52.6548L26.7681 52.0917C27.0495 52.0217 27.3471 52.0662 27.5957 52.2154C27.8443 52.3646 28.0236 52.6063 28.0943 52.8875L28.6574 55.1402C28.7149 55.3708 28.8459 55.5764 29.0306 55.7259C29.2153 55.8753 29.4437 55.9606 29.6812 55.9688L36.0473 56.1883L35.4243 59.9224ZM35.7829 52.3568L35.3782 53.9758L30.5794 53.8104L30.216 52.3569C30.0049 51.5128 29.4672 50.7871 28.7211 50.3394C27.975 49.8917 27.0816 49.7586 26.2375 49.9695L25.8172 50.0747L26.0844 49.4063H39.9155L40.1827 50.0745L39.761 49.9691C38.9169 49.7588 38.0239 49.8921 37.2781 50.3398C36.5322 50.7875 35.9946 51.513 35.7833 52.3568H35.7829ZM56.987 63.625H51.7168L37.5612 60.408L38.2522 56.2637L57.1008 56.9136C57.98 56.9444 58.8121 57.3191 59.4178 57.9571C60.0236 58.5951 60.3547 59.4455 60.3398 60.3252C60.3248 61.2048 59.9652 62.0435 59.3381 62.6606C58.7111 63.2778 57.8668 63.6241 56.987 63.625ZM51.2919 54.5246C51.7193 54.2869 52.0738 53.9371 52.3173 53.5129L53.2152 54.5902L51.2919 54.5246ZM63.625 55.1808L61.4375 55.91L55.5162 53.9363L44.9621 41.2715L43.7089 34.3784C43.804 33.9251 43.8522 33.4632 43.8527 33C43.855 32.0686 43.6619 31.147 43.2859 30.2948C42.9099 29.4427 42.3593 28.6789 41.6697 28.0527L40.8537 23.1563H42.4943C43.2595 23.1563 44.0006 23.4238 44.5895 23.9125C45.1783 24.4012 45.5778 25.0803 45.7189 25.8324L48.3318 39.764C48.3625 39.9289 48.4308 40.0845 48.5312 40.2188L55.0938 48.9688C55.1956 49.1046 55.3277 49.2149 55.4796 49.2908C55.6315 49.3667 55.799 49.4063 55.9688 49.4063H60.3438C60.0974 49.4063 59.8582 49.4895 59.665 49.6424C59.4719 49.7953 59.3359 50.0089 59.2793 50.2487C59.2227 50.4885 59.2487 50.7403 59.3531 50.9635C59.4575 51.1866 59.6342 51.368 59.8546 51.4782L63.625 53.3634V55.1808Z" fill="#FF6768"/>
</svg>
