<svg width="69" height="50" viewBox="0 0 69 50" fill="none" xmlns="http://www.w3.org/2000/svg">
<path d="M67.8393 32.3064C64.3382 31.5868 60.7687 31.266 57.1973 31.3502C59.2504 26.0834 59.6736 19.7333 58.436 12.4212C58.4093 12.2648 58.3511 12.1157 58.265 11.9832C58.179 11.8506 58.0669 11.7374 57.9358 11.6506C57.8048 11.5639 57.6575 11.5054 57.5031 11.4788C57.3488 11.4522 57.1907 11.4582 57.0387 11.4962C53.1846 12.5956 49.5136 14.2713 46.1469 16.4681C43.9567 10.4134 40.2073 5.06362 35.2882 0.974316C35.0674 0.80149 34.7919 0.716643 34.5136 0.735818C34.2353 0.754993 33.9736 0.876861 33.778 1.07838C28.7193 6.29422 25.3373 11.6534 23.6812 17.0346C20.0932 14.5621 16.1359 12.6912 11.9612 11.4939C11.8093 11.4558 11.6512 11.4499 11.4968 11.4765C11.3425 11.5031 11.1952 11.5616 11.0641 11.6483C10.9331 11.7351 10.821 11.8483 10.735 11.9809C10.6489 12.1134 10.5907 12.2625 10.564 12.4189C9.32639 19.731 9.75413 26.08 11.8027 31.3478C8.23128 31.2637 4.66179 31.5844 1.16066 32.3041C1.00073 32.3418 0.850789 32.4142 0.721203 32.5164C0.591617 32.6187 0.485478 32.7482 0.410126 32.8961C0.334395 33.0435 0.290914 33.2057 0.282647 33.3718C0.27438 33.5378 0.301521 33.7036 0.36222 33.8581C5.31938 46.4404 14.9816 49.3391 22.8325 49.3391C26.7994 49.3136 30.7373 48.6518 34.5 47.3781C38.2628 48.6536 42.2011 49.317 46.1686 49.3437C54.0184 49.3437 63.6817 46.4438 68.6389 33.8627C68.6996 33.7083 68.7267 33.5424 68.7185 33.3764C68.7102 33.2104 68.6667 33.0481 68.591 32.9007C68.5158 32.7522 68.4096 32.6222 68.2798 32.5196C68.15 32.4169 67.9997 32.3442 67.8393 32.3064ZM54.6685 31.475C50.4918 31.7354 46.4148 32.8775 42.6988 34.8282C42.4993 34.8775 42.317 34.9815 42.1718 35.1288C39.863 36.4801 37.8493 38.2932 36.2531 40.4579C36.303 38.3225 36.1082 36.1884 35.6726 34.0986C37.0413 28.2283 40.5601 23.2298 46.1663 19.2315C49.3138 17.0305 52.7588 15.3025 56.3943 14.1012C57.3684 20.9023 56.7798 26.7344 54.6685 31.475ZM34.6699 3.45678C36.6786 5.25938 42.0167 10.5874 44.1885 17.8486C39.8558 20.9384 36.4923 25.2274 34.5 30.2032C32.652 25.5498 29.5861 21.4959 25.6328 18.4788C27.0118 13.4618 30.0356 8.41594 34.6699 3.45678ZM12.6103 14.0943C16.5632 15.3983 20.2869 17.3302 23.6424 19.8177C28.4606 23.2389 31.8998 28.307 33.3286 34.0916C32.8921 36.1814 32.6968 38.3155 32.7468 40.451C28.1262 34.161 20.7817 31.9942 14.3303 31.4693C12.2202 26.7344 11.6316 20.9011 12.6103 14.0978V14.0943ZM21.2619 47.0335C12.722 46.5641 6.59345 42.279 3.02444 34.2963C8.19489 33.4037 26.8418 31.2808 32.9909 45.4518C29.2005 46.6609 25.2325 47.1972 21.2619 47.037V47.0335ZM47.7381 47.0335C43.7676 47.1923 39.7998 46.6561 36.009 45.4483C42.157 31.2819 60.8028 33.4048 65.9812 34.2963C62.4065 42.279 56.2779 46.5641 47.7381 47.037V47.0335Z" fill="#FF6768"/>
</svg>
