<svg width="70" height="70" viewBox="0 0 70 70" fill="none" xmlns="http://www.w3.org/2000/svg">
<path d="M70 57.5806V56.4516H65.4839V54.0332C67.4269 53.5285 68.871 51.7763 68.871 49.6774C68.871 47.9455 68.1687 46.2497 66.9437 45.0247L64.3548 42.4358L61.766 45.0247C60.541 46.2497 59.8387 47.9455 59.8387 49.6774C59.8387 51.7763 61.2827 53.5285 63.2258 54.0332V56.4516H58.7097V57.5806C58.7097 58.8565 59.1511 60.0216 59.8681 60.9677H56.4516V56.4516H58.7097V48.921C58.7097 46.9802 58.0695 45.0585 56.9055 43.5095C55.9097 42.1829 54.5797 41.1679 53.0645 40.5571V18.0645C53.0645 8.10419 44.9603 0 35 0C25.0397 0 16.9355 8.10419 16.9355 18.0645V35H19.1935V18.0645C19.1935 9.34839 26.2839 2.25806 35 2.25806C43.7161 2.25806 50.8064 9.34839 50.8064 18.0645V39.9452L44.0323 38.5903V37.1655C46.7961 34.6839 48.5484 31.0947 48.5484 27.0956V15.8065H47.4194C43.3063 15.8065 39.2723 14.3918 36.0602 11.8232L35 10.9731L33.9398 11.8221C30.7277 14.3918 26.6937 15.8065 22.5806 15.8065H21.4516V27.0968C21.4516 31.0958 23.2039 34.6839 25.9677 37.1666V38.5914L19.1935 39.9463V37.2581H16.9355V40.5571C15.4192 41.1679 14.0892 42.1829 13.0945 43.5095C11.9305 45.0585 11.2903 46.9802 11.2903 48.921V56.4516H13.5484V60.9677H10.1319C10.8489 60.0216 11.2903 58.8565 11.2903 57.5806V56.4516H6.77419V54.0332C8.71726 53.5285 10.1613 51.7763 10.1613 49.6774C10.1613 47.9455 9.45903 46.2497 8.23403 45.0247L5.64516 42.4358L3.05629 45.0247C1.83129 46.2497 1.12903 47.9455 1.12903 49.6774C1.12903 51.7763 2.57306 53.5285 4.51613 54.0332V56.4516H0V57.5806C0 59.2629 0.755323 60.7589 1.92613 61.7942C0.764355 62.6127 0 63.9574 0 65.4839C0 67.9745 2.02548 70 4.51613 70H65.4839C67.9745 70 70 67.9745 70 65.4839C70 63.9574 69.2356 62.6127 68.0739 61.7942C69.2447 60.7589 70 59.2629 70 57.5806ZM62.0968 49.6774C62.0968 48.5394 62.5574 47.4261 63.3624 46.6211L64.3548 45.6287L65.3473 46.6211C66.1523 47.4261 66.6129 48.5394 66.6129 49.6774C66.6129 50.5095 66.1556 51.2298 65.4839 51.6216V49.6774H63.2258V51.6216C62.554 51.2298 62.0968 50.5095 62.0968 49.6774ZM67.5489 58.7097C67.0826 60.0239 65.8271 60.9677 64.3548 60.9677C62.8826 60.9677 61.6271 60.0239 61.1608 58.7097H67.5489ZM23.7097 27.0968V18.0329C27.79 17.8048 31.7473 16.345 35 13.8589C38.2527 16.345 42.21 17.8048 46.2903 18.0329V27.0968C46.2903 33.3223 41.2255 38.3871 35 38.3871C28.7745 38.3871 23.7097 33.3223 23.7097 27.0968ZM41.7742 38.8116V39.3411C41.5619 39.9497 40.2613 42.9032 35 42.9032C29.7387 42.9032 28.4381 39.9497 28.2258 39.3411V38.8116C30.2208 39.97 32.5308 40.6452 35 40.6452C37.4692 40.6452 39.7792 39.97 41.7742 38.8116ZM3.3871 49.6774C3.3871 48.5394 3.84774 47.4261 4.65274 46.6211L5.64516 45.6287L6.63758 46.6211C7.44258 47.4261 7.90323 48.5394 7.90323 49.6774C7.90323 50.5095 7.44597 51.2298 6.77419 51.6216V49.6774H4.51613V51.6216C3.84435 51.2298 3.3871 50.5095 3.3871 49.6774ZM8.83919 58.7097C8.3729 60.0239 7.11742 60.9677 5.64516 60.9677C4.1729 60.9677 2.91742 60.0239 2.45113 58.7097H8.83919ZM21.4516 67.7419H4.51613C3.27081 67.7419 2.25806 66.7292 2.25806 65.4839C2.25806 64.2385 3.27081 63.2258 4.51613 63.2258H15.8065V56.4516H18.0905C18.2203 58.9355 19.4419 61.224 21.4516 62.6918V67.7419ZM47.0016 61.0185L46.2903 61.4939V67.7419H23.7097V61.4939L22.9973 61.0174C21.3229 59.9019 20.3226 58.0334 20.3226 56.0203C20.3226 54.416 20.9469 52.9076 22.0816 51.7729L23.3789 50.4756L21.7824 48.8792L20.4852 50.1765C19.3652 51.2965 18.6132 52.684 18.2745 54.1936H13.5484V48.921C13.5484 47.4668 14.0282 46.0261 14.8998 44.8632C15.9002 43.5298 17.351 42.6165 18.9835 42.2902L26.4103 40.8044C27.2097 42.3635 29.4181 45.1613 35 45.1613C40.5819 45.1613 42.7903 42.3635 43.5885 40.8044L51.0153 42.2902C52.6479 42.6165 54.0987 43.531 55.099 44.8644C55.9718 46.0261 56.4516 47.4668 56.4516 48.921V54.1936H51.7266C51.3868 52.684 50.636 51.2965 49.516 50.1765L48.2187 48.8792L46.6223 50.4756L47.9195 51.7729C49.0531 52.9076 49.6774 54.416 49.6774 56.0203C49.6774 58.0334 48.6771 59.9019 47.0016 61.0185ZM65.4839 67.7419H48.5484V62.6906C50.5603 61.2229 51.7808 58.9355 51.9095 56.4516H54.1936V63.2258H65.4839C66.7292 63.2258 67.7419 64.2385 67.7419 65.4839C67.7419 66.7292 66.7292 67.7419 65.4839 67.7419Z" fill="#FF6768"/>
</svg>
