<svg width="56" height="70" viewBox="0 0 56 70" fill="none" xmlns="http://www.w3.org/2000/svg">
<path d="M55.7958 54.8238C55.2999 53.429 53.9781 52.4986 52.4977 52.5021H49.6758L45.4984 45.1925V32.6708C45.4984 30.0937 43.4093 28.0046 40.8322 28.0046V12.8395C41.0689 5.9892 35.7076 0.2441 28.8573 0.00743674C28.5717 -0.00247891 28.2859 -0.00247891 28.0002 0.00743674C19.979 0.00743674 15.4015 6.5961 15.1682 12.7951C15.1682 12.8103 15.1764 12.8243 15.1764 12.8395H15.1682V28.0046C12.5911 28.0046 10.502 30.0937 10.502 32.6708V45.1925L6.3246 52.5021H3.50286C1.57456 52.4981 0.00817981 54.058 0.00409689 55.9863C0.0010347 57.4662 0.931356 58.7873 2.32582 59.2832C0.640886 61.1878 0.81893 64.0977 2.72361 65.7826C3.41187 66.3916 4.26681 66.7806 5.17803 66.8996L27.8429 69.9898C27.9479 70.0035 28.054 70.0035 28.159 69.9898L50.8239 66.8996C53.3454 66.5702 55.1224 64.2591 54.793 61.7376C54.6741 60.8264 54.285 59.9715 53.6761 59.2832C55.4928 58.6372 56.442 56.6407 55.7958 54.8238ZM28.0004 2.34068C33.5415 2.08345 38.2421 6.36687 38.4993 11.9081C38.5137 12.2184 38.5137 12.5293 38.4993 12.8396H36.1662C32.9465 12.8358 30.3373 10.2265 30.3335 7.00687C30.3333 6.36264 29.811 5.84047 29.1666 5.84061C28.8573 5.84061 28.5609 5.96354 28.3422 6.18212C25.4501 9.08522 21.6898 10.9653 17.6321 11.5366C18.2735 6.29469 22.7193 2.35161 28.0004 2.34068ZM25.6673 29.1713V24.1819C26.4277 24.3905 27.2119 24.4991 28.0004 24.5051C28.7892 24.4984 29.5737 24.3873 30.3335 24.1749V29.1713C30.3335 29.8155 30.8558 30.3378 31.5 30.3378H33.8331V31.8298L28.0004 33.7745L22.1676 31.8298V30.3378H24.5007C25.1449 30.3378 25.6673 29.8155 25.6673 29.1713ZM18.892 13.6784C22.3556 13.0376 25.6038 11.5407 28.341 9.32363C29.3712 12.7877 32.5522 15.1654 36.1662 15.1727H36.6748C35.2166 19.0865 31.5187 22.172 28.0004 22.172C23.9489 22.172 19.8567 18.2454 18.892 13.6784ZM32.6666 28.0047V23.2394C35.242 21.7899 37.2859 19.5543 38.4993 16.8595V28.0047H34.9996H32.6666ZM17.5014 16.863C18.7075 19.5634 20.7532 21.8022 23.3342 23.2464V28.0047H17.5014V16.863ZM19.8345 30.3378V32.6709C19.835 33.1728 20.1562 33.6182 20.6324 33.7768V33.778L27.6317 36.1111C27.8713 36.1916 28.1306 36.1916 28.3702 36.1111L35.3694 33.778C35.8455 33.6189 36.1665 33.173 36.1662 32.6709V30.3378H39.338L34.0886 51.3357H21.9122L16.6627 30.3378H19.8345ZM21.5377 53.6688H34.463L39.1502 59.1364L28.0004 60.6576L16.8505 59.141L21.5377 53.6688ZM14.1044 58.7619L11.9522 58.4691L19.2606 50.3476L19.7272 52.2013L14.1044 58.7619ZM36.2829 52.2013L36.7495 50.3476L44.0579 58.4691L41.9009 58.7619L36.2829 52.2013ZM2.33632 56.0019C2.33632 55.3576 2.85864 54.8353 3.50286 54.8353H7.00251C7.42013 54.8362 7.80626 54.6137 8.01507 54.252L12.6813 46.0862C12.7829 45.9086 12.836 45.7075 12.8352 45.5029V32.6709C12.8352 31.718 13.4149 30.8607 14.2993 30.5058L16.4387 39.0624L18.577 47.6191L9.98304 57.1684H3.50286C2.85849 57.1684 2.33632 56.6461 2.33632 56.0019ZM28.0004 67.6569L5.493 64.5865C4.23342 64.4201 3.34728 63.2642 3.51365 62.0046C3.66531 60.8566 4.64652 60.0004 5.80446 60.0055C5.90829 60.0055 6.01196 60.0129 6.11477 60.0276L14.4101 61.1592L27.5921 62.9568L33.8366 66.8601L28.0004 67.6569ZM50.5077 64.5865L37.4494 66.3678L31.3495 62.5555L41.5825 61.1557L49.8766 60.0241C51.1355 59.8475 52.299 60.7249 52.4755 61.9838C52.4906 62.0908 52.498 62.1989 52.4979 62.3071C52.4938 63.4561 51.6457 64.4274 50.5077 64.5865ZM52.4979 57.1684H46.0177L37.4226 47.6179L39.5608 39.0613L41.7003 30.5046C42.5856 30.8594 43.1658 31.7173 43.1655 32.6709V45.5029C43.1648 45.7075 43.2178 45.9086 43.3195 46.0862L47.9857 54.252C48.1945 54.6137 48.5806 54.8362 48.9982 54.8353H52.4979C53.1421 54.8353 53.6644 55.3576 53.6644 56.0019C53.6644 56.6461 53.1421 57.1684 52.4979 57.1684Z" fill="#FF6768"/>
</svg>
